<?xml version="1.0" encoding="UTF-8" standalone="no"?>
<!DOCTYPE svg PUBLIC "-//W3C//DTD SVG 1.0//EN" "http://www.w3.org/TR/2001/PR-SVG-20010719/DTD/svg10.dtd">
<svg width="11cm" height="11cm" viewBox="-1 -1 203 203" xmlns="http://www.w3.org/2000/svg" xmlns:xlink="http://www.w3.org/1999/xlink">
  <g>
    <ellipse style="fill: #ffffff" cx="180" cy="20" rx="20" ry="20"/>
    <ellipse style="fill: none; fill-opacity:0; stroke-width: 2; stroke: #000000" cx="180" cy="20" rx="20" ry="20"/>
    <ellipse style="fill: none; fill-opacity:0; stroke-width: 2; stroke: #000000" cx="180" cy="20" rx="20" ry="20"/>
  </g>
  <g>
    <ellipse style="fill: #ffffff" cx="20" cy="20" rx="20" ry="20"/>
    <ellipse style="fill: none; fill-opacity:0; stroke-width: 2; stroke: #000000" cx="20" cy="20" rx="20" ry="20"/>
    <ellipse style="fill: none; fill-opacity:0; stroke-width: 2; stroke: #000000" cx="20" cy="20" rx="20" ry="20"/>
  </g>
  <g>
    <ellipse style="fill: #ffffff" cx="20" cy="180" rx="20" ry="20"/>
    <ellipse style="fill: none; fill-opacity:0; stroke-width: 2; stroke: #000000" cx="20" cy="180" rx="20" ry="20"/>
    <ellipse style="fill: none; fill-opacity:0; stroke-width: 2; stroke: #000000" cx="20" cy="180" rx="20" ry="20"/>
  </g>
  <g>
    <ellipse style="fill: #ffffff" cx="180" cy="180" rx="20" ry="20"/>
    <ellipse style="fill: none; fill-opacity:0; stroke-width: 2; stroke: #000000" cx="180" cy="180" rx="20" ry="20"/>
    <ellipse style="fill: none; fill-opacity:0; stroke-width: 2; stroke: #000000" cx="180" cy="180" rx="20" ry="20"/>
  </g>
  <g>
    <ellipse style="fill: #ffffff" cx="140" cy="100" rx="20" ry="20"/>
    <ellipse style="fill: none; fill-opacity:0; stroke-width: 2; stroke: #000000" cx="140" cy="100" rx="20" ry="20"/>
    <ellipse style="fill: none; fill-opacity:0; stroke-width: 2; stroke: #000000" cx="140" cy="100" rx="20" ry="20"/>
  </g>
  <text font-size="33.8667" style="fill: #000000;text-anchor:middle;font-family:sans-serif;font-style:normal;font-weight:normal" x="20" y="31.725">
    <tspan x="20" y="31.725">1</tspan>
  </text>
  <text font-size="33.8667" style="fill: #000000;text-anchor:middle;font-family:sans-serif;font-style:normal;font-weight:normal" x="180" y="31.725">
    <tspan x="180" y="31.725">2</tspan>
  </text>
  <text font-size="33.8667" style="fill: #000000;text-anchor:middle;font-family:sans-serif;font-style:normal;font-weight:normal" x="140" y="111.725">
    <tspan x="140" y="111.725">3</tspan>
  </text>
  <text font-size="33.8667" style="fill: #000000;text-anchor:middle;font-family:sans-serif;font-style:normal;font-weight:normal" x="20" y="191.725">
    <tspan x="20" y="191.725">5</tspan>
  </text>
  <text font-size="33.8667" style="fill: #000000;text-anchor:middle;font-family:sans-serif;font-style:normal;font-weight:normal" x="180" y="191.725">
    <tspan x="180" y="191.725">4</tspan>
  </text>
  <g>
    <line style="fill: none; fill-opacity:0; stroke-width: 2; stroke: #000000" x1="20" y1="40" x2="20" y2="149"/>
    <polygon style="fill: #000000" points="15,149 20,159 25,149 "/>
    <polygon style="fill: none; fill-opacity:0; stroke-width: 2; stroke: #000000" points="15,149 20,159 25,149 "/>
  </g>
  <g>
    <line style="fill: none; fill-opacity:0; stroke-width: 2; stroke: #000000" x1="40" y1="20" x2="148.005" y2="20"/>
    <polygon style="fill: #000000" points="148.005,25 158.005,20 148.005,15 "/>
    <polygon style="fill: none; fill-opacity:0; stroke-width: 2; stroke: #000000" points="148.005,25 158.005,20 148.005,15 "/>
  </g>
  <g>
    <line style="fill: none; fill-opacity:0; stroke-width: 2; stroke: #000000" x1="34.8535" y1="165.146" x2="157.368" y2="42.6317"/>
    <polygon style="fill: #000000" points="160.904,46.1672 164.439,35.5606 153.833,39.0962 "/>
    <polygon style="fill: none; fill-opacity:0; stroke-width: 2; stroke: #000000" points="160.904,46.1672 164.439,35.5606 153.833,39.0962 "/>
  </g>
  <g>
    <line style="fill: none; fill-opacity:0; stroke-width: 2; stroke: #000000" x1="40.9766" y1="180" x2="148.023" y2="180"/>
    <polygon style="fill: #000000" points="148.023,185 158.023,180 148.023,175 "/>
    <polygon style="fill: none; fill-opacity:0; stroke-width: 2; stroke: #000000" points="148.023,185 158.023,180 148.023,175 "/>
  </g>
  <g>
    <line style="fill: none; fill-opacity:0; stroke-width: 2; stroke: #000000" x1="180" y1="40.9949" x2="180" y2="149"/>
    <polygon style="fill: #000000" points="175,149 180,159 185,149 "/>
    <polygon style="fill: none; fill-opacity:0; stroke-width: 2; stroke: #000000" points="175,149 180,159 185,149 "/>
  </g>
  <g>
    <line style="fill: none; fill-opacity:0; stroke-width: 2; stroke: #000000" x1="149.385" y1="118.77" x2="165.696" y2="151.392"/>
    <polygon style="fill: #000000" points="161.224,153.628 170.168,160.336 170.168,149.156 "/>
    <polygon style="fill: none; fill-opacity:0; stroke-width: 2; stroke: #000000" points="161.224,153.628 170.168,160.336 170.168,149.156 "/>
  </g>
</svg>
