<?xml version="1.0" encoding="UTF-8" standalone="no"?>
<!DOCTYPE svg PUBLIC "-//W3C//DTD SVG 1.0//EN" "http://www.w3.org/TR/2001/PR-SVG-20010719/DTD/svg10.dtd">
<svg width="11cm" height="11cm" viewBox="-1 -1 203 203" xmlns="http://www.w3.org/2000/svg" xmlns:xlink="http://www.w3.org/1999/xlink">
  <g>
    <ellipse style="fill: #ffffff" cx="180" cy="20" rx="20" ry="20"/>
    <ellipse style="fill: none; fill-opacity:0; stroke-width: 2; stroke: #000000" cx="180" cy="20" rx="20" ry="20"/>
    <ellipse style="fill: none; fill-opacity:0; stroke-width: 2; stroke: #000000" cx="180" cy="20" rx="20" ry="20"/>
  </g>
  <g>
    <ellipse style="fill: #ffffff" cx="20" cy="20" rx="20" ry="20"/>
    <ellipse style="fill: none; fill-opacity:0; stroke-width: 2; stroke: #000000" cx="20" cy="20" rx="20" ry="20"/>
    <ellipse style="fill: none; fill-opacity:0; stroke-width: 2; stroke: #000000" cx="20" cy="20" rx="20" ry="20"/>
  </g>
  <g>
    <ellipse style="fill: #ffffff" cx="20" cy="180" rx="20" ry="20"/>
    <ellipse style="fill: none; fill-opacity:0; stroke-width: 2; stroke: #000000" cx="20" cy="180" rx="20" ry="20"/>
    <ellipse style="fill: none; fill-opacity:0; stroke-width: 2; stroke: #000000" cx="20" cy="180" rx="20" ry="20"/>
  </g>
  <g>
    <ellipse style="fill: #ffffff" cx="180" cy="180" rx="20" ry="20"/>
    <ellipse style="fill: none; fill-opacity:0; stroke-width: 2; stroke: #000000" cx="180" cy="180" rx="20" ry="20"/>
    <ellipse style="fill: none; fill-opacity:0; stroke-width: 2; stroke: #000000" cx="180" cy="180" rx="20" ry="20"/>
  </g>
  <g>
    <ellipse style="fill: #ffffff" cx="140" cy="100" rx="20" ry="20"/>
    <ellipse style="fill: none; fill-opacity:0; stroke-width: 2; stroke: #000000" cx="140" cy="100" rx="20" ry="20"/>
    <ellipse style="fill: none; fill-opacity:0; stroke-width: 2; stroke: #000000" cx="140" cy="100" rx="20" ry="20"/>
  </g>
  <text font-size="33.8667" style="fill: #000000;text-anchor:middle;font-family:sans-serif;font-style:normal;font-weight:normal" x="20" y="31.725">
    <tspan x="20" y="31.725">1</tspan>
  </text>
  <text font-size="33.8667" style="fill: #000000;text-anchor:middle;font-family:sans-serif;font-style:normal;font-weight:normal" x="180" y="31.725">
    <tspan x="180" y="31.725">2</tspan>
  </text>
  <text font-size="33.8667" style="fill: #000000;text-anchor:middle;font-family:sans-serif;font-style:normal;font-weight:normal" x="140" y="111.725">
    <tspan x="140" y="111.725">3</tspan>
  </text>
  <text font-size="33.8667" style="fill: #000000;text-anchor:middle;font-family:sans-serif;font-style:normal;font-weight:normal" x="20" y="191.725">
    <tspan x="20" y="191.725">5</tspan>
  </text>
  <text font-size="33.8667" style="fill: #000000;text-anchor:middle;font-family:sans-serif;font-style:normal;font-weight:normal" x="180" y="191.725">
    <tspan x="180" y="191.725">4</tspan>
  </text>
  <line style="fill: none; fill-opacity:0; stroke-width: 2; stroke: #000000" x1="20" y1="40" x2="20" y2="160"/>
  <line style="fill: none; fill-opacity:0; stroke-width: 2; stroke: #000000" x1="40" y1="20" x2="160" y2="20"/>
  <line style="fill: none; fill-opacity:0; stroke-width: 2; stroke: #000000" x1="180" y1="40" x2="180" y2="160"/>
  <line style="fill: none; fill-opacity:0; stroke-width: 2; stroke: #000000" x1="40" y1="180" x2="160" y2="180"/>
  <line style="fill: none; fill-opacity:0; stroke-width: 2; stroke: #000000" x1="34.8535" y1="165.146" x2="165.146" y2="34.8535"/>
  <line style="fill: none; fill-opacity:0; stroke-width: 2; stroke: #000000" x1="170.615" y1="38.7695" x2="149.385" y2="81.2305"/>
  <line style="fill: none; fill-opacity:0; stroke-width: 2; stroke: #000000" x1="149.385" y1="118.77" x2="170.615" y2="161.23"/>
</svg>
