<?xml version="1.0" encoding="UTF-8" standalone="no"?>
<!DOCTYPE svg PUBLIC "-//W3C//DTD SVG 1.0//EN" "http://www.w3.org/TR/2001/PR-SVG-20010719/DTD/svg10.dtd">
<svg width="35cm" height="15cm" viewBox="-1 -2 683 283" xmlns="http://www.w3.org/2000/svg" xmlns:xlink="http://www.w3.org/1999/xlink">
  <g>
    <ellipse style="fill: #ffffff" cx="100" cy="100" rx="20" ry="20"/>
    <ellipse style="fill: none; fill-opacity:0; stroke-width: 2; stroke: #000000" cx="100" cy="100" rx="20" ry="20"/>
    <ellipse style="fill: none; fill-opacity:0; stroke-width: 2; stroke: #000000" cx="100" cy="100" rx="20" ry="20"/>
  </g>
  <g>
    <ellipse style="fill: #ffffff" cx="20" cy="100" rx="20" ry="20"/>
    <ellipse style="fill: none; fill-opacity:0; stroke-width: 2; stroke: #000000" cx="20" cy="100" rx="20" ry="20"/>
    <ellipse style="fill: none; fill-opacity:0; stroke-width: 2; stroke: #000000" cx="20" cy="100" rx="20" ry="20"/>
  </g>
  <g>
    <ellipse style="fill: #ffffff" cx="180" cy="100" rx="20" ry="20"/>
    <ellipse style="fill: none; fill-opacity:0; stroke-width: 2; stroke: #000000" cx="180" cy="100" rx="20" ry="20"/>
    <ellipse style="fill: none; fill-opacity:0; stroke-width: 2; stroke: #000000" cx="180" cy="100" rx="20" ry="20"/>
  </g>
  <g>
    <ellipse style="fill: #ffffff" cx="280" cy="100" rx="20" ry="20"/>
    <ellipse style="fill: none; fill-opacity:0; stroke-width: 2; stroke: #000000" cx="280" cy="100" rx="20" ry="20"/>
    <ellipse style="fill: none; fill-opacity:0; stroke-width: 2; stroke: #000000" cx="280" cy="100" rx="20" ry="20"/>
  </g>
  <g>
    <ellipse style="fill: #ffffff" cx="280" cy="180" rx="20" ry="20"/>
    <ellipse style="fill: none; fill-opacity:0; stroke-width: 2; stroke: #000000" cx="280" cy="180" rx="20" ry="20"/>
    <ellipse style="fill: none; fill-opacity:0; stroke-width: 2; stroke: #000000" cx="280" cy="180" rx="20" ry="20"/>
  </g>
  <g>
    <ellipse style="fill: #ffffff" cx="280" cy="260" rx="20" ry="20"/>
    <ellipse style="fill: none; fill-opacity:0; stroke-width: 2; stroke: #000000" cx="280" cy="260" rx="20" ry="20"/>
    <ellipse style="fill: none; fill-opacity:0; stroke-width: 2; stroke: #000000" cx="280" cy="260" rx="20" ry="20"/>
  </g>
  <line style="fill: none; fill-opacity:0; stroke-width: 2; stroke: #000000" x1="280" y1="120.977" x2="280" y2="159.023"/>
  <line style="fill: none; fill-opacity:0; stroke-width: 2; stroke: #000000" x1="280" y1="200.977" x2="280" y2="239.023"/>
  <g>
    <ellipse style="fill: #bfbfbf" cx="100" cy="20" rx="20" ry="20"/>
    <ellipse style="fill: none; fill-opacity:0; stroke-width: 2; stroke: #000000" cx="100" cy="20" rx="20" ry="20"/>
    <ellipse style="fill: none; fill-opacity:0; stroke-width: 2; stroke: #000000" cx="100" cy="20" rx="20" ry="20"/>
  </g>
  <line style="fill: none; fill-opacity:0; stroke-width: 2; stroke: #000000" x1="85.1465" y1="34.8535" x2="34.8535" y2="85.1465"/>
  <line style="fill: none; fill-opacity:0; stroke-width: 2; stroke: #000000" x1="100" y1="40.9766" x2="100" y2="79.0234"/>
  <line style="fill: none; fill-opacity:0; stroke-width: 2; stroke: #000000" x1="114.854" y1="34.8535" x2="165.146" y2="85.1465"/>
  <g>
    <ellipse style="fill: #bfbfbf" cx="280" cy="20" rx="20" ry="20"/>
    <ellipse style="fill: none; fill-opacity:0; stroke-width: 2; stroke: #000000" cx="280" cy="20" rx="20" ry="20"/>
    <ellipse style="fill: none; fill-opacity:0; stroke-width: 2; stroke: #000000" cx="280" cy="20" rx="20" ry="20"/>
  </g>
  <line style="fill: none; fill-opacity:0; stroke-width: 2; stroke: #000000" x1="280" y1="40.9766" x2="280" y2="79.0234"/>
  <text font-size="22.5774" style="fill: #000000;text-anchor:middle;font-family:sans-serif;font-style:normal;font-weight:normal" x="180" y="107.825">
    <tspan x="180" y="107.825">g</tspan>
  </text>
  <text font-size="22.5774" style="fill: #000000;text-anchor:middle;font-family:sans-serif;font-style:normal;font-weight:normal" x="280" y="187.825">
    <tspan x="280" y="187.825">h</tspan>
  </text>
  <line style="fill: none; fill-opacity:0; stroke-width: 2; stroke-dasharray: 4; stroke: #000000" x1="196.016" y1="112.812" x2="263.984" y2="167.188"/>
  <g>
    <polygon style="fill: #bfbfbf" points="320,130 340,130 340,120 360,140 340,160 340,150 320,150 330,140 "/>
    <polygon style="fill: none; fill-opacity:0; stroke-width: 2; stroke: #000000" points="320,130 340,130 340,120 360,140 340,160 340,150 320,150 330,140 "/>
    <polygon style="fill: none; fill-opacity:0; stroke-width: 2; stroke: #000000" points="320,130 340,130 340,120 360,140 340,160 340,150 320,150 330,140 "/>
  </g>
  <g>
    <ellipse style="fill: #ffffff" cx="480" cy="100" rx="20" ry="20"/>
    <ellipse style="fill: none; fill-opacity:0; stroke-width: 2; stroke: #000000" cx="480" cy="100" rx="20" ry="20"/>
    <ellipse style="fill: none; fill-opacity:0; stroke-width: 2; stroke: #000000" cx="480" cy="100" rx="20" ry="20"/>
  </g>
  <g>
    <ellipse style="fill: #ffffff" cx="400" cy="100" rx="20" ry="20"/>
    <ellipse style="fill: none; fill-opacity:0; stroke-width: 2; stroke: #000000" cx="400" cy="100" rx="20" ry="20"/>
    <ellipse style="fill: none; fill-opacity:0; stroke-width: 2; stroke: #000000" cx="400" cy="100" rx="20" ry="20"/>
  </g>
  <g>
    <ellipse style="fill: #ffffff" cx="560" cy="100" rx="20" ry="20"/>
    <ellipse style="fill: none; fill-opacity:0; stroke-width: 2; stroke: #000000" cx="560" cy="100" rx="20" ry="20"/>
    <ellipse style="fill: none; fill-opacity:0; stroke-width: 2; stroke: #000000" cx="560" cy="100" rx="20" ry="20"/>
  </g>
  <g>
    <ellipse style="fill: #ffffff" cx="560" cy="260" rx="20" ry="20"/>
    <ellipse style="fill: none; fill-opacity:0; stroke-width: 2; stroke: #000000" cx="560" cy="260" rx="20" ry="20"/>
    <ellipse style="fill: none; fill-opacity:0; stroke-width: 2; stroke: #000000" cx="560" cy="260" rx="20" ry="20"/>
  </g>
  <g>
    <ellipse style="fill: #bfbfbf" cx="660" cy="20" rx="20" ry="20"/>
    <ellipse style="fill: none; fill-opacity:0; stroke-width: 2; stroke: #000000" cx="660" cy="20" rx="20" ry="20"/>
    <ellipse style="fill: none; fill-opacity:0; stroke-width: 2; stroke: #000000" cx="660" cy="20" rx="20" ry="20"/>
  </g>
  <g>
    <ellipse style="fill: #ffffff" cx="660" cy="100" rx="20" ry="20"/>
    <ellipse style="fill: none; fill-opacity:0; stroke-width: 2; stroke: #000000" cx="660" cy="100" rx="20" ry="20"/>
    <ellipse style="fill: none; fill-opacity:0; stroke-width: 2; stroke: #000000" cx="660" cy="100" rx="20" ry="20"/>
  </g>
  <line style="fill: none; fill-opacity:0; stroke-width: 2; stroke: #000000" x1="660" y1="40.9766" x2="660" y2="79.0234"/>
  <g>
    <ellipse style="fill: #bfbfbf" cx="480" cy="20" rx="20" ry="20"/>
    <ellipse style="fill: none; fill-opacity:0; stroke-width: 2; stroke: #000000" cx="480" cy="20" rx="20" ry="20"/>
    <ellipse style="fill: none; fill-opacity:0; stroke-width: 2; stroke: #000000" cx="480" cy="20" rx="20" ry="20"/>
  </g>
  <line style="fill: none; fill-opacity:0; stroke-width: 2; stroke: #000000" x1="465.146" y1="34.8535" x2="414.854" y2="85.1465"/>
  <line style="fill: none; fill-opacity:0; stroke-width: 2; stroke: #000000" x1="480" y1="40.9766" x2="480" y2="79.0234"/>
  <line style="fill: none; fill-opacity:0; stroke-width: 2; stroke: #000000" x1="494.854" y1="34.8535" x2="545.146" y2="85.1465"/>
  <g>
    <ellipse style="fill: #ffffff" cx="560" cy="180" rx="20" ry="20"/>
    <ellipse style="fill: none; fill-opacity:0; stroke-width: 2; stroke: #000000" cx="560" cy="180" rx="20" ry="20"/>
    <ellipse style="fill: none; fill-opacity:0; stroke-width: 2; stroke: #000000" cx="560" cy="180" rx="20" ry="20"/>
  </g>
  <line style="fill: none; fill-opacity:0; stroke-width: 2; stroke: #000000" x1="560" y1="200.977" x2="560" y2="239.023"/>
  <text font-size="22.5774" style="fill: #000000;text-anchor:middle;font-family:sans-serif;font-style:normal;font-weight:normal" x="560" y="107.825">
    <tspan x="560" y="107.825">g</tspan>
  </text>
  <text font-size="22.5774" style="fill: #000000;text-anchor:middle;font-family:sans-serif;font-style:normal;font-weight:normal" x="560" y="187.825">
    <tspan x="560" y="187.825">h</tspan>
  </text>
  <line style="fill: none; fill-opacity:0; stroke-width: 2; stroke: #000000" x1="560" y1="120.977" x2="560" y2="159.023"/>
  <line style="fill: none; fill-opacity:0; stroke-width: 2; stroke: #000000" x1="560" y1="180" x2="560" y2="180"/>
  <g>
    <line style="fill: none; fill-opacity:0; stroke-width: 2; stroke: #000000" x1="240" y1="165" x2="240" y2="275"/>
    <polygon style="fill: #000000" points="237,160 243,160 243,166 237,166 "/>
    <line style="fill: none; fill-opacity:0; stroke-width: 2; stroke: #000000" x1="234" y1="163" x2="246" y2="163"/>
    <polygon style="fill: #000000" points="243,280 237,280 237,274 243,274 "/>
    <line style="fill: none; fill-opacity:0; stroke-width: 2; stroke: #000000" x1="246" y1="277" x2="234" y2="277"/>
  </g>
  <text font-size="45.1549" style="fill: #000000;text-anchor:middle;font-family:sans-serif;font-style:normal;font-weight:normal" x="200" y="235.65">
    <tspan x="200" y="235.65">F</tspan>
  </text>
  <text font-size="22.5774" style="fill: #000000;text-anchor:middle;font-family:sans-serif;font-style:normal;font-weight:normal" x="220" y="212.825">
    <tspan x="220" y="212.825">*</tspan>
  </text>
  <text font-size="22.5774" style="fill: #000000;text-anchor:middle;font-family:sans-serif;font-style:normal;font-weight:normal" x="220" y="241.825">
    <tspan x="220" y="241.825">m</tspan>
  </text>
  <text font-size="22.5774" style="fill: #000000;text-anchor:middle;font-family:sans-serif;font-style:normal;font-weight:normal" x="280" y="107.496">
    <tspan x="280" y="107.496">k</tspan>
  </text>
  <text font-size="22.5774" style="fill: #000000;text-anchor:middle;font-family:sans-serif;font-style:normal;font-weight:normal" x="660" y="107.825">
    <tspan x="660" y="107.825">k</tspan>
  </text>
</svg>
